<svg width="148" height="148" viewBox="0 0 148 148" fill="none" xmlns="http://www.w3.org/2000/svg">
<g clip-path="url(#clip0_296_556)">
<rect width="148" height="148" fill="white"/>
<g opacity="0.67">
<path d="M58.7732 64H88.8607V121.566H58.7732V64Z" stroke="#F76363" stroke-width="4" stroke-miterlimit="10"/>
<path d="M10.2225 110.518C8.3693 110.518 6.86678 108.873 6.86678 106.845C6.86678 104.817 8.3693 103.173 10.2225 103.173C12.076 103.173 13.5783 104.817 13.5783 106.845C13.5783 108.873 12.076 110.518 10.2225 110.518Z" fill="#A10606" stroke="#F76363"/>
<path d="M137.01 152.325V131.738L131.045 130.89V152.036" stroke="#F76363" stroke-width="4" stroke-miterlimit="10"/>
<path d="M10.2225 87.6663C8.3693 87.6663 6.86678 86.0223 6.86678 83.9943C6.86678 81.9663 8.3693 80.3223 10.2225 80.3223C12.076 80.3223 13.5783 81.9663 13.5783 83.9943C13.5783 86.0223 12.076 87.6663 10.2225 87.6663Z" fill="#A10606" stroke="#F76363"/>
<path d="M6.96365 96.6667C6.53786 94.6929 7.65498 92.7151 9.45887 92.2494C11.2626 91.7835 13.0699 93.0059 13.4957 94.9797C13.9215 96.9536 12.8043 98.9312 11.0004 99.3971C9.19671 99.863 7.38944 98.6406 6.96365 96.6667Z" fill="#A10606" stroke="#F76363"/>
<path d="M17.3053 152.169V131.738L10.9672 132.555V152.549" stroke="#F76363" stroke-width="4" stroke-miterlimit="10"/>
<path d="M10.2225 121.539C8.3693 121.539 6.86678 119.895 6.86678 117.867C6.86678 115.839 8.3693 114.195 10.2225 114.195C12.076 114.195 13.5783 115.839 13.5783 117.867C13.5783 119.895 12.076 121.539 10.2225 121.539Z" fill="#A10606" stroke="#F76363"/>
<path d="M137.757 110.518C135.904 110.518 134.401 108.873 134.401 106.845C134.401 104.817 135.904 103.173 137.757 103.173C139.61 103.173 141.113 104.817 141.113 106.845C141.113 108.873 139.61 110.518 137.757 110.518Z" fill="#A10606" stroke="#F76363"/>
<path d="M134.188 96.1593C133.891 94.1517 135.139 92.2609 136.973 91.9364C138.808 91.6119 140.536 92.9765 140.832 94.9842C141.129 96.992 139.882 98.8826 138.047 99.2071C136.212 99.5316 134.485 98.167 134.188 96.1593Z" fill="#A10606" stroke="#F76363"/>
<path d="M137.757 121.539C135.904 121.539 134.401 119.895 134.401 117.867C134.401 115.839 135.904 114.195 137.757 114.195C139.61 114.195 141.113 115.839 141.113 117.867C141.113 119.895 139.61 121.539 137.757 121.539Z" fill="#A10606" stroke="#F76363"/>
<path d="M137.757 87.6663C135.904 87.6663 134.401 86.0223 134.401 83.9943C134.401 81.9663 135.904 80.3223 137.757 80.3223C139.61 80.3223 141.113 81.9663 141.113 83.9943C141.113 86.0223 139.61 87.6663 137.757 87.6663Z" fill="#A10606" stroke="#F76363"/>
<path d="M145.588 75.7754V152.669" stroke="#F76363" stroke-width="4" stroke-miterlimit="10"/>
<path d="M2.76321 75.4404V153.706" stroke="#F76363" stroke-width="4" stroke-miterlimit="10"/>
<path d="M131.043 77.4683L131.118 129.156" stroke="#F76363" stroke-width="4" stroke-miterlimit="10"/>
<path d="M17.3074 77.4683L17.3606 130.822" stroke="#F76363" stroke-width="4" stroke-miterlimit="10"/>
<path d="M171.925 69.7974C171.677 70.1659 171.17 70.5411 170.421 70.9074C162.955 74.6816 131.342 78.8487 89.2528 79.628" stroke="#F76363" stroke-width="4" stroke-miterlimit="10"/>
<path d="M58.958 79.5658C18.0642 78.589 -12.1723 74.1865 -19.5927 70.7609C-20.3111 70.4301 -20.8115 70.1082 -21.0971 69.7974" stroke="#F76363" stroke-width="4" stroke-miterlimit="10"/>
<path d="M171.55 64.4937C168.815 68.5121 135.361 73.4451 89.2529 74.3243" stroke="#F76363" stroke-width="4" stroke-miterlimit="10"/>
<path d="M58.7875 74.27C13.8056 73.1999 -18.0868 67.936 -21.2679 64.4238" stroke="#F76363" stroke-width="4" stroke-miterlimit="10"/>
</g>
<ellipse cx="136.078" cy="25.0833" rx="11.9222" ry="12.0833" fill="#001E2A"/>
<ellipse cx="136.078" cy="25.0833" rx="11.9222" ry="12.0833" fill="url(#paint0_linear_296_556)"/>
<path d="M13.8045 37.8297C14.7805 38.0377 15.5645 38.5257 16.1565 39.2937C16.7485 40.0457 17.0445 40.9097 17.0445 41.8857C17.0445 43.2937 16.5485 44.4137 15.5565 45.2457C14.5805 46.0617 13.2125 46.4697 11.4525 46.4697H3.60449V29.6217H11.1885C12.9005 29.6217 14.2365 30.0137 15.1965 30.7977C16.1725 31.5817 16.6605 32.6457 16.6605 33.9897C16.6605 34.9817 16.3965 35.8057 15.8685 36.4617C15.3565 37.1177 14.6685 37.5737 13.8045 37.8297ZM7.70849 36.4377H10.3965C11.0685 36.4377 11.5805 36.2937 11.9325 36.0057C12.3005 35.7017 12.4845 35.2617 12.4845 34.6857C12.4845 34.1097 12.3005 33.6697 11.9325 33.3657C11.5805 33.0617 11.0685 32.9097 10.3965 32.9097H7.70849V36.4377ZM10.7325 43.1577C11.4205 43.1577 11.9485 43.0057 12.3165 42.7017C12.7005 42.3817 12.8925 41.9257 12.8925 41.3337C12.8925 40.7417 12.6925 40.2777 12.2925 39.9417C11.9085 39.6057 11.3725 39.4377 10.6845 39.4377H7.70849V43.1577H10.7325ZM21.4888 31.6857C20.7688 31.6857 20.1768 31.4777 19.7128 31.0617C19.2648 30.6297 19.0408 30.1017 19.0408 29.4777C19.0408 28.8377 19.2648 28.3097 19.7128 27.8937C20.1768 27.4617 20.7688 27.2457 21.4888 27.2457C22.1928 27.2457 22.7688 27.4617 23.2168 27.8937C23.6808 28.3097 23.9128 28.8377 23.9128 29.4777C23.9128 30.1017 23.6808 30.6297 23.2168 31.0617C22.7688 31.4777 22.1928 31.6857 21.4888 31.6857ZM23.5288 33.0777V46.4697H19.4248V33.0777H23.5288ZM30.6069 34.9737C30.9909 34.3497 31.5429 33.8457 32.2629 33.4617C32.9829 33.0777 33.8069 32.8857 34.7349 32.8857C35.8389 32.8857 36.8389 33.1657 37.7349 33.7257C38.6309 34.2857 39.3349 35.0857 39.8469 36.1257C40.3749 37.1657 40.6389 38.3737 40.6389 39.7497C40.6389 41.1257 40.3749 42.3417 39.8469 43.3977C39.3349 44.4377 38.6309 45.2457 37.7349 45.8217C36.8389 46.3817 35.8389 46.6617 34.7349 46.6617C33.7909 46.6617 32.9669 46.4777 32.2629 46.1097C31.5589 45.7257 31.0069 45.2217 30.6069 44.5977V46.4697H26.5029V28.7097H30.6069V34.9737ZM36.4629 39.7497C36.4629 38.7257 36.1749 37.9257 35.5989 37.3497C35.0389 36.7577 34.3429 36.4617 33.5109 36.4617C32.6949 36.4617 31.9989 36.7577 31.4229 37.3497C30.8629 37.9417 30.5829 38.7497 30.5829 39.7737C30.5829 40.7977 30.8629 41.6057 31.4229 42.1977C31.9989 42.7897 32.6949 43.0857 33.5109 43.0857C34.3269 43.0857 35.0229 42.7897 35.5989 42.1977C36.1749 41.5897 36.4629 40.7737 36.4629 39.7497ZM46.896 28.7097V46.4697H42.792V28.7097H46.896ZM51.9341 31.6857C51.2141 31.6857 50.6221 31.4777 50.1581 31.0617C49.7101 30.6297 49.4861 30.1017 49.4861 29.4777C49.4861 28.8377 49.7101 28.3097 50.1581 27.8937C50.6221 27.4617 51.2141 27.2457 51.9341 27.2457C52.6381 27.2457 53.2141 27.4617 53.6621 27.8937C54.1261 28.3097 54.3581 28.8377 54.3581 29.4777C54.3581 30.1017 54.1261 30.6297 53.6621 31.0617C53.2141 31.4777 52.6381 31.6857 51.9341 31.6857ZM53.9741 33.0777V46.4697H49.8701V33.0777H53.9741ZM63.0442 46.6617C61.7322 46.6617 60.5482 46.3817 59.4922 45.8217C58.4522 45.2617 57.6282 44.4617 57.0202 43.4217C56.4282 42.3817 56.1322 41.1657 56.1322 39.7737C56.1322 38.3977 56.4362 37.1897 57.0442 36.1497C57.6522 35.0937 58.4842 34.2857 59.5402 33.7257C60.5962 33.1657 61.7802 32.8857 63.0922 32.8857C64.4042 32.8857 65.5882 33.1657 66.6442 33.7257C67.7002 34.2857 68.5322 35.0937 69.1402 36.1497C69.7482 37.1897 70.0522 38.3977 70.0522 39.7737C70.0522 41.1497 69.7402 42.3657 69.1162 43.4217C68.5082 44.4617 67.6682 45.2617 66.5962 45.8217C65.5402 46.3817 64.3562 46.6617 63.0442 46.6617ZM63.0442 43.1097C63.8282 43.1097 64.4922 42.8217 65.0362 42.2457C65.5962 41.6697 65.8762 40.8457 65.8762 39.7737C65.8762 38.7017 65.6042 37.8777 65.0602 37.3017C64.5322 36.7257 63.8762 36.4377 63.0922 36.4377C62.2922 36.4377 61.6282 36.7257 61.1002 37.3017C60.5722 37.8617 60.3082 38.6857 60.3082 39.7737C60.3082 40.8457 60.5642 41.6697 61.0762 42.2457C61.6042 42.8217 62.2602 43.1097 63.0442 43.1097ZM81.4194 32.9097V36.3177H86.9154V39.4857H81.4194V43.1817H87.6354V46.4697H77.3154V29.6217H87.6354V32.9097H81.4194ZM95.7478 46.6617C94.5798 46.6617 93.5398 46.4617 92.6278 46.0617C91.7158 45.6617 90.9958 45.1177 90.4678 44.4297C89.9398 43.7257 89.6438 42.9417 89.5798 42.0777H93.6358C93.6838 42.5417 93.8998 42.9177 94.2838 43.2057C94.6678 43.4937 95.1398 43.6377 95.6998 43.6377C96.2118 43.6377 96.6038 43.5417 96.8758 43.3497C97.1638 43.1417 97.3078 42.8777 97.3078 42.5577C97.3078 42.1737 97.1078 41.8937 96.7078 41.7177C96.3078 41.5257 95.6598 41.3177 94.7638 41.0937C93.8038 40.8697 93.0038 40.6377 92.3638 40.3977C91.7238 40.1417 91.1718 39.7497 90.7078 39.2217C90.2438 38.6777 90.0118 37.9497 90.0118 37.0377C90.0118 36.2697 90.2198 35.5737 90.6358 34.9497C91.0678 34.3097 91.6918 33.8057 92.5078 33.4377C93.3398 33.0697 94.3238 32.8857 95.4598 32.8857C97.1398 32.8857 98.4598 33.3017 99.4198 34.1337C100.396 34.9657 100.956 36.0697 101.1 37.4457H97.3078C97.2438 36.9817 97.0358 36.6137 96.6838 36.3417C96.3478 36.0697 95.8998 35.9337 95.3398 35.9337C94.8598 35.9337 94.4918 36.0297 94.2358 36.2217C93.9798 36.3977 93.8518 36.6457 93.8518 36.9657C93.8518 37.3497 94.0518 37.6377 94.4518 37.8297C94.8678 38.0217 95.5078 38.2137 96.3718 38.4057C97.3638 38.6617 98.1718 38.9177 98.7958 39.1737C99.4198 39.4137 99.9638 39.8137 100.428 40.3737C100.908 40.9177 101.156 41.6537 101.172 42.5817C101.172 43.3657 100.948 44.0697 100.5 44.6937C100.068 45.3017 99.4358 45.7817 98.6038 46.1337C97.7878 46.4857 96.8358 46.6617 95.7478 46.6617ZM111.147 42.9897V46.4697H109.059C107.571 46.4697 106.411 46.1097 105.579 45.3897C104.747 44.6537 104.331 43.4617 104.331 41.8137V36.4857H102.699V33.0777H104.331V29.8137H108.435V33.0777H111.123V36.4857H108.435V41.8617C108.435 42.2617 108.531 42.5497 108.723 42.7257C108.915 42.9017 109.235 42.9897 109.683 42.9897H111.147ZM115.497 31.6857C114.777 31.6857 114.185 31.4777 113.721 31.0617C113.273 30.6297 113.049 30.1017 113.049 29.4777C113.049 28.8377 113.273 28.3097 113.721 27.8937C114.185 27.4617 114.777 27.2457 115.497 27.2457C116.201 27.2457 116.777 27.4617 117.225 27.8937C117.689 28.3097 117.921 28.8377 117.921 29.4777C117.921 30.1017 117.689 30.6297 117.225 31.0617C116.777 31.4777 116.201 31.6857 115.497 31.6857ZM117.537 33.0777V46.4697H113.433V33.0777H117.537ZM128.671 32.9337C130.239 32.9337 131.487 33.4457 132.415 34.4697C133.359 35.4777 133.831 36.8697 133.831 38.6457V46.4697H129.751V39.1977C129.751 38.3017 129.519 37.6057 129.055 37.1097C128.591 36.6137 127.967 36.3657 127.183 36.3657C126.399 36.3657 125.775 36.6137 125.311 37.1097C124.847 37.6057 124.615 38.3017 124.615 39.1977V46.4697H120.511V33.0777H124.615V34.8537C125.031 34.2617 125.591 33.7977 126.295 33.4617C126.999 33.1097 127.791 32.9337 128.671 32.9337Z" fill="#002533"/>
</g>
<defs>
<linearGradient id="paint0_linear_296_556" x1="126.378" y1="27.541" x2="164.396" y2="21.1561" gradientUnits="userSpaceOnUse">
<stop stop-color="#F1413E"/>
<stop offset="1" stop-color="#F1413E" stop-opacity="0"/>
</linearGradient>
<clipPath id="clip0_296_556">
<rect width="148" height="148" fill="white"/>
</clipPath>
</defs>
</svg>
