<svg width="21" height="20" viewBox="0 0 21 20" fill="none" xmlns="http://www.w3.org/2000/svg">
<g clip-path="url(#clip0_813_3789)">
<rect x="0.360107" width="20" height="20" rx="10" fill="#141212"/>
<path d="M10.3601 0.25C4.82868 0.25 0.360107 4.71857 0.360107 10.25C0.360107 14.6557 3.23582 18.4071 7.20296 19.75C7.70296 19.8443 7.89154 19.5314 7.89154 19.2814V17.5943C5.11011 18.1871 4.51582 16.25 4.51582 16.25C4.04725 15.0929 3.39154 14.7814 3.39154 14.7814C2.48582 14.1557 3.45439 14.1871 3.45439 14.1871C4.45439 14.25 4.98439 15.2186 4.98439 15.2186C5.89154 16.75 7.32868 16.3129 7.89154 16.0614C7.98582 15.4057 8.23439 14.9686 8.51582 14.7186C6.29725 14.4686 3.95439 13.5943 3.95439 9.78143C3.95439 8.68714 4.32868 7.81286 4.98439 7.09429C4.89154 6.84429 4.54725 5.81286 5.07868 4.43714C5.07868 4.43714 5.92154 4.15571 7.82868 5.46857C8.64341 5.24534 9.48393 5.13007 10.3287 5.12571C11.1715 5.12571 12.0472 5.25 12.8287 5.46857C14.7358 4.18714 15.5787 4.43714 15.5787 4.43714C16.1101 5.81286 15.7658 6.84429 15.673 7.09429C16.3301 7.78 16.7044 8.68714 16.7044 9.78C16.7044 13.6243 14.3601 14.4686 12.1415 14.7186C12.4844 15.0314 12.8287 15.6243 12.8287 16.5614V19.3129C12.8287 19.5943 13.0158 19.9057 13.5158 19.7814C17.4858 18.4057 20.3601 14.6557 20.3601 10.25C20.3601 4.71857 15.8915 0.25 10.3601 0.25Z" fill="white"/>
</g>
<defs>
<clipPath id="clip0_813_3789">
<rect x="0.360107" width="20" height="20" rx="10" fill="white"/>
</clipPath>
</defs>
</svg>
